<?xml version="1.0" encoding="iso-8859-1"?>
<!-- Uploaded to: SVG Repo, www.svgrepo.com, Generator: SVG Repo Mixer Tools -->
<svg version="1.1" id="Layer_1" xmlns="http://www.w3.org/2000/svg" xmlns:xlink="http://www.w3.org/1999/xlink" 
	 viewBox="0 0 511.992 511.992" xml:space="preserve">
<rect x="240" y="358.988" width="32" height="77.528"/>
<polygon points="155.904,456.428 166.568,424.428 345.432,424.428 356.096,456.428 "/>
<path style="fill:#FFD67F;" d="M37.296,362.62C21.144,362.62,8,349.476,8,333.316V92.868c0-16.16,13.144-29.296,29.296-29.296
	h437.408c16.16,0,29.296,13.144,29.296,29.296v240.456c0,16.16-13.144,29.296-29.296,29.296H37.296z"/>
<path d="M474.704,71.564c11.744,0,21.296,9.552,21.296,21.296v240.456c0,11.744-9.552,21.296-21.296,21.296H37.296
	C25.552,354.612,16,345.06,16,333.316V92.86c0-11.744,9.552-21.296,21.296-21.296H474.704 M474.704,55.564H37.296
	C16.784,55.564,0,72.348,0,92.86v240.456c0,20.512,16.784,37.296,37.296,37.296h437.4c20.512,0,37.296-16.784,37.296-37.296V92.86
	C512,72.348,495.216,55.564,474.704,55.564L474.704,55.564z"/>
<path style="fill:#FF583E;" d="M256,99.412c-34.824,36.6-92.672,28.336-92.672,28.336s0,40.728,0,99.168S256,326.076,256,326.076
	s92.672-40.728,92.672-99.168s0-99.168,0-99.168S290.824,136.012,256,99.412z"/>
<path style="fill:#FFFFFF;" d="M248.816,268.14v-12.864c-9.08-0.408-17.888-2.848-23.04-5.824l4.072-15.856
	c5.696,3.112,13.68,5.96,22.496,5.96c7.72,0,13.008-2.976,13.008-8.4c0-5.152-4.336-8.408-14.368-11.792
	c-14.496-4.88-24.392-11.648-24.392-24.792c0-11.928,8.408-21.272,22.904-24.12v-12.88h13.272V169.5
	c9.08,0.408,15.184,2.296,19.648,4.472l-3.928,15.312c-3.52-1.488-9.752-4.616-19.52-4.616c-8.808,0-11.648,3.792-11.648,7.592
	c0,4.472,4.744,7.312,16.264,11.648c16.12,5.696,22.632,13.144,22.632,25.344c0,12.056-8.544,22.352-24.12,25.072v13.816H248.816z"
	/>
</svg>